# xmcd
#
# Track frame offsets:
#	150
#	14002
#	24400
#	40350
#	49775
#	66320
#	80275
#	96537
#	107092
#	132015
#	145640
#	165590
#	182770
#	193662
#	209507
#	222357
#	241840
#
# Disc length: 3374 seconds
#
# Revision: 1
# Processed by: cddbd v1.5PL3 Copyright (c) Steve Scherf et al.
# Submitted via: audiograbber 1.82.01
#
DISCID=f30d2c11
DTITLE=Bagboys - Sensible Music for trubled times
DYEAR=1997
DGENRE=Bluegrass
TTITLE0=Carry Me Back
TTITLE1=That Song about Bob Wills
TTITLE2=Sweet Molly Brown
TTITLE3=The Three Dogs
TTITLE4=Damn Yankee Lad
TTITLE5=Oh Mona!
TTITLE6=WBAG
TTITLE7=Wine and Roses
TTITLE8=Peace of Mind
TTITLE9=Wah-Hoo!
TTITLE10=Someday
TTITLE11=Ditch Diggin' Man
TTITLE12=Miss Molly
TTITLE13=John Henry
TTITLE14=Thank you Mom
TTITLE15=Night Call
TTITLE16=Papish Cats
EXTD=
EXTT0=
EXTT1=
EXTT2=
EXTT3=
EXTT4=
EXTT5=
EXTT6=
EXTT7=
EXTT8=
EXTT9=
EXTT10=
EXTT11=
EXTT12=
EXTT13=
EXTT14=
EXTT15=
EXTT16=
PLAYORDER=
